<svg width="800" height="600" viewBox="0 0 800 600" xmlns="http://www.w3.org/2000/svg">
  <defs>
    <style>
      .box { fill: #ffffff; stroke: #2563eb; stroke-width: 2; }
      .box-text { fill: #1e293b; font-family: system-ui, -apple-system, sans-serif; font-size: 14px; font-weight: 600; }
      .box-desc { fill: #64748b; font-family: system-ui, -apple-system, sans-serif; font-size: 11px; }
      .arrow { stroke: #2563eb; stroke-width: 2; fill: none; marker-end: url(#arrowhead); }
      .bi-arrow { stroke: #2563eb; stroke-width: 2; fill: none; marker-end: url(#arrowhead); marker-start: url(#arrowhead-reverse); }
    </style>
    <marker id="arrowhead" markerWidth="10" markerHeight="10" refX="9" refY="3" orient="auto">
      <polygon points="0 0, 10 3, 0 6" fill="#2563eb" />
    </marker>
    <marker id="arrowhead-reverse" markerWidth="10" markerHeight="10" refX="1" refY="3" orient="auto">
      <polygon points="10 0, 0 3, 10 6" fill="#2563eb" />
    </marker>
  </defs>

  <!-- Title -->
  <text x="400" y="30" text-anchor="middle" style="fill: #1e293b; font-family: system-ui, -apple-system, sans-serif; font-size: 20px; font-weight: 700;">Unified Risk Platform</text>

  <!-- Threat Models Box -->
  <rect class="box" x="50" y="80" width="160" height="80" rx="8" />
  <text class="box-text" x="130" y="110" text-anchor="middle">Threat Models</text>
  <text class="box-desc" x="130" y="130" text-anchor="middle">Research &amp; Intelligence</text>
  <text class="box-desc" x="130" y="145" text-anchor="middle">Attack Scenarios</text>

  <!-- Controls Box -->
  <rect class="box" x="50" y="200" width="160" height="80" rx="8" />
  <text class="box-text" x="130" y="230" text-anchor="middle">Controls</text>
  <text class="box-desc" x="130" y="250" text-anchor="middle">Configuration</text>
  <text class="box-desc" x="130" y="265" text-anchor="middle">Hardening</text>

  <!-- Evidence Box -->
  <rect class="box" x="50" y="320" width="160" height="80" rx="8" />
  <text class="box-text" x="130" y="350" text-anchor="middle">Evidence</text>
  <text class="box-desc" x="130" y="370" text-anchor="middle">Logs &amp; Telemetry</text>
  <text class="box-desc" x="130" y="385" text-anchor="middle">Compliance Data</text>

  <!-- Detections Box -->
  <rect class="box" x="320" y="80" width="160" height="80" rx="8" />
  <text class="box-text" x="400" y="110" text-anchor="middle">Detections</text>
  <text class="box-desc" x="400" y="130" text-anchor="middle">Sigma Rules</text>
  <text class="box-desc" x="400" y="145" text-anchor="middle">Queries &amp; ML Models</text>

  <!-- Automations Box -->
  <rect class="box" x="320" y="200" width="160" height="80" rx="8" />
  <text class="box-text" x="400" y="230" text-anchor="middle">Automations</text>
  <text class="box-desc" x="400" y="250" text-anchor="middle">Runbooks</text>
  <text class="box-desc" x="400" y="265" text-anchor="middle">Orchestration</text>

  <!-- Tickets Box -->
  <rect class="box" x="590" y="80" width="160" height="80" rx="8" />
  <text class="box-text" x="670" y="110" text-anchor="middle">Tickets</text>
  <text class="box-desc" x="670" y="130" text-anchor="middle">Jira &amp; ServiceNow</text>
  <text class="box-desc" x="670" y="145" text-anchor="middle">Case Management</text>

  <!-- Metrics Box -->
  <rect class="box" x="590" y="200" width="160" height="80" rx="8" />
  <text class="box-text" x="670" y="230" text-anchor="middle">Metrics</text>
  <text class="box-desc" x="670" y="250" text-anchor="middle">Dashboards</text>
  <text class="box-desc" x="670" y="265" text-anchor="middle">SLOs &amp; Reporting</text>

  <!-- Vertical arrows on left -->
  <path class="arrow" d="M 130 160 L 130 200" />
  <path class="arrow" d="M 130 280 L 130 320" />

  <!-- Bidirectional arrows between columns -->
  <path class="bi-arrow" d="M 210 120 L 320 120" />
  <path class="arrow" d="M 210 240 L 320 240" />
  <path class="arrow" d="M 210 360 L 260 240" />

  <!-- Arrows from Detections to Automations and Tickets -->
  <path class="arrow" d="M 400 160 L 400 200" />
  <path class="arrow" d="M 480 120 L 590 120" />

  <!-- Arrows from Automations to Tickets and Metrics -->
  <path class="arrow" d="M 480 240 L 590 240" />
  <path class="arrow" d="M 480 240 L 590 120" />

  <!-- Arrow from Tickets to Metrics -->
  <path class="arrow" d="M 670 160 L 670 200" />

  <!-- Feedback loop arrow from Metrics back to Threat Models -->
  <path class="arrow" d="M 590 240 L 550 240 L 550 450 L 130 450 L 130 400" stroke-dasharray="5,5" />

  <!-- Integration labels -->
  <text x="400" y="520" text-anchor="middle" style="fill: #64748b; font-family: system-ui, -apple-system, sans-serif; font-size: 12px;">Integrations: Sentinel • Splunk • Jira • ServiceNow • GitHub • Slack</text>
</svg>
